<?xml version="1.0" encoding="UTF-8" standalone="no"?>
<!-- Created with Inkscape (http://www.inkscape.org/) -->

<svg
   xmlns:dc="http://purl.org/dc/elements/1.1/"
   xmlns:cc="http://creativecommons.org/ns#"
   xmlns:rdf="http://www.w3.org/1999/02/22-rdf-syntax-ns#"
   xmlns:svg="http://www.w3.org/2000/svg"
   xmlns="http://www.w3.org/2000/svg"
   xmlns:sodipodi="http://sodipodi.sourceforge.net/DTD/sodipodi-0.dtd"
   xmlns:inkscape="http://www.inkscape.org/namespaces/inkscape"
   width="776.99493"
   height="495.26166"
   id="svg2"
   version="1.1"
   inkscape:version="0.48.2 r9819"
   sodipodi:docname="tfr.svg">
  <defs
     id="defs4" />
  <sodipodi:namedview
     id="base"
     pagecolor="#ffffff"
     bordercolor="#666666"
     borderopacity="1.0"
     inkscape:pageopacity="0.0"
     inkscape:pageshadow="2"
     inkscape:zoom="0.49497475"
     inkscape:cx="568.02922"
     inkscape:cy="274.61"
     inkscape:document-units="px"
     inkscape:current-layer="layer1"
     showgrid="false"
     inkscape:window-width="1280"
     inkscape:window-height="717"
     inkscape:window-x="0"
     inkscape:window-y="30"
     inkscape:window-maximized="1"
     fit-margin-top="0"
     fit-margin-left="0"
     fit-margin-right="0"
     fit-margin-bottom="0" />
  <metadata
     id="metadata7">
    <rdf:RDF>
      <cc:Work
         rdf:about="">
        <dc:format>image/svg+xml</dc:format>
        <dc:type
           rdf:resource="http://purl.org/dc/dcmitype/StillImage" />
        <dc:title />
      </cc:Work>
    </rdf:RDF>
  </metadata>
  <g
     inkscape:label="Layer 1"
     inkscape:groupmode="layer"
     id="layer1"
     transform="translate(193.02922,-311.71053)">
    <g
       id="g3824"
       inkscape:export-xdpi="90"
       inkscape:export-ydpi="90"
       transform="matrix(0.70427823,0,0,0.70427823,-57.081517,238.64166)">
      <g
         style="font-size:40px;font-style:normal;font-variant:normal;font-weight:normal;font-stretch:normal;line-height:125%;letter-spacing:0px;word-spacing:0px;fill:#c4ff00;fill-opacity:1;stroke:none;font-family:Catharsis Circular;-inkscape-font-specification:Catharsis Circular"
         id="text2985">
        <path
           d="m 232.44371,312.79986 c 9.40797,7.96801 20.25596,11.952 32.544,11.952 12.19193,0 22.99192,-3.98399 32.4,-11.952 l 0,-49.104 16.848,0 c -2.4961,-11.51993 -8.40009,-21.02392 -17.712,-28.512 -9.21608,-7.4879 -19.72806,-11.2319 -31.536,-11.232 -11.80804,1e-4 -22.36803,3.7441 -31.68,11.232 -9.21601,7.48808 -15.07201,16.99207 -17.568,28.512 l 16.704,0 0,49.104 m 0,-49.104 0,0"
           style="font-size:144px;text-align:center;text-anchor:middle;fill:#c4ff00"
           id="path2993" />
        <path
           d="m 315.27521,274.35186 c 0,-11.61594 3.69599,-22.07993 11.088,-31.392 7.48798,-9.31191 16.89597,-15.2639 28.224,-17.856 l 0.144,38.304 21.6,0 0,-38.304 c 11.51992,2.4961 21.02392,8.40009 28.512,17.712 7.4879,9.21607 11.2319,19.72806 11.232,31.536 -1e-4,11.80804 -3.7441,22.36803 -11.232,31.68 -7.48808,9.21601 -16.99208,15.07201 -28.512,17.568 l 0,-38.304 -21.6,0 -0.144,38.304 c -11.32803,-2.59199 -20.73602,-8.54399 -28.224,-17.856 -7.39201,-9.31197 -11.088,-19.77596 -11.088,-31.392"
           style="font-size:144px;text-align:center;text-anchor:middle;fill:#c4ff00"
           id="path2995" />
        <path
           d="m 466.36271,324.75186 c -13.92004,0 -25.82403,-4.89599 -35.712,-14.688 -9.79201,-9.88797 -14.688,-21.79196 -14.688,-35.712 0,-13.91993 4.89599,-25.77592 14.688,-35.568 9.88797,-9.8879 21.79196,-14.8319 35.712,-14.832 15.55193,1e-4 28.36792,5.9521 38.448,17.856 l -27.792,0 0,21.6 38.592,0 c 0.7679,3.55206 1.1519,7.20006 1.152,10.944 -10e-5,3.64805 -0.3841,7.20004 -1.152,10.656 l -38.592,0 0,21.6 28.08,0 c -10.08008,12.09601 -22.99207,18.144 -38.736,18.144"
           style="font-size:144px;text-align:center;text-anchor:middle;fill:#c4ff00"
           id="path2997" />
        <path
           d="m 74.268708,465.00786 38.592002,0 c 0.7679,-3.45596 1.1519,-7.00795 1.152,-10.656 -1e-4,-3.74394 -0.3841,-7.39194 -1.152,-10.944 l -38.592002,0 0,-21.6 27.792002,0 c -10.080081,-11.9039 -22.896068,-17.8559 -38.448002,-17.856 -13.824037,10e-5 -25.680025,4.9441 -35.568,14.832 -9.888005,9.88808 -14.832,21.74407 -14.832,35.568 0,13.82404 4.943995,25.68003 14.832,35.568 9.887975,9.88801 21.743963,14.832 35.568,14.832 3.647945,0 7.199942,-0.384 10.656,-1.152 l 0,-38.592"
           style="font-size:144px;text-align:center;text-anchor:middle;fill:#c4ff00"
           id="path2999" />
        <path
           d="m 153.35621,443.40786 21.6,0 0,-38.304 c 11.51992,2.4961 21.02392,8.35209 28.512,17.568 7.4879,9.21607 11.2319,19.77606 11.232,31.68 -1e-4,13.92004 -4.9441,25.82403 -14.832,35.712 -9.79208,9.79201 -21.64807,14.688 -35.568,14.688 -13.92004,0 -25.82403,-4.89599 -35.712,-14.688 -9.79201,-9.88797 -14.688,-21.79196 -14.688,-35.712 0,-11.80794 3.69599,-22.31993 11.088,-31.536 7.39198,-9.21591 16.79997,-15.1199 28.224,-17.712 l 0.144,38.304"
           style="font-size:144px;text-align:center;text-anchor:middle;fill:#c4ff00"
           id="path3001" />
        <path
           d="m 275.93171,443.40786 0,21.6 38.304,0 c -2.4961,11.52003 -8.35209,21.02402 -17.568,28.512 -9.21608,7.48801 -19.77606,11.232 -31.68,11.232 -13.92004,0 -25.82403,-4.89599 -35.712,-14.688 -9.79201,-9.88797 -14.688,-21.79196 -14.688,-35.712 0,-13.91993 4.89599,-25.77592 14.688,-35.568 9.88797,-9.8879 21.79196,-14.8319 35.712,-14.832 11.80794,10e-5 22.31992,3.6961 31.536,11.088 9.21591,7.39208 15.1199,16.80007 17.712,28.224 l -38.304,0.144"
           style="font-size:144px;text-align:center;text-anchor:middle;fill:#c4ff00"
           id="path3003" />
        <path
           d="m 376.33121,405.10386 c 9.59993,2.0161 17.90392,6.52809 24.912,13.536 7.0079,6.91208 11.5679,15.16807 13.68,24.768 l -17.136,-0.144 0,21.744 17.136,0 c -2.0161,9.60003 -6.5761,17.95202 -13.68,25.056 -7.00808,7.00801 -15.31207,11.52 -24.912,13.536 l 0,-98.496 m 0,81.504 -21.744,0 0.144,16.992 c -11.52003,-2.59199 -20.97602,-8.49599 -28.368,-17.712 -7.39201,-9.31197 -11.088,-19.82396 -11.088,-31.536 0,-11.71194 3.69599,-22.17593 11.088,-31.392 7.39198,-9.31191 16.84797,-15.2639 28.368,-17.856 l -0.144,16.704 21.744,0 0,64.8"
           style="font-size:144px;text-align:center;text-anchor:middle;fill:#c4ff00"
           id="path3005" />
        <path
           d="m 466.36271,504.75186 c -15.45604,0 -28.32002,-6.09599 -38.592,-18.288 l 6.048,0.144 0,-64.8 -5.904,0 c 10.07998,-11.9039 22.89596,-17.8559 38.448,-17.856 15.55193,10e-5 28.36792,5.9521 38.448,17.856 l -5.904,0 0,64.8 6.048,-0.144 c -10.27208,12.19201 -23.13607,18.288 -38.592,18.288"
           style="font-size:144px;text-align:center;text-anchor:middle;fill:#c4ff00"
           id="path3007" />
        <path
           d="m 534.50621,465.00786 21.6,0 0,38.592 c 3.55195,0.768 7.19995,1.152 10.944,1.152 13.91993,0 25.77592,-4.89599 35.568,-14.688 9.8879,-9.88797 14.8319,-21.79196 14.832,-35.712 -10e-5,-15.74393 -6.0481,-28.65592 -18.144,-38.736 l -0.144,27.648 -21.456,0.144 0,-38.304 c -3.45606,-0.7679 -7.00806,-1.1519 -10.656,-1.152 -13.92004,10e-5 -25.82403,4.9441 -35.712,14.832 -9.79201,9.79208 -14.688,21.64807 -14.688,35.568 0,15.55204 5.95199,28.36802 17.856,38.448 l 0,-27.792"
           style="font-size:144px;text-align:center;text-anchor:middle;fill:#c4ff00"
           id="path3009" />
        <path
           d="m 699.99371,465.15186 -21.6,-0.144 0,-43.2 27.792,0 c -10.08008,-11.9039 -22.89607,-17.8559 -38.448,-17.856 -13.92004,10e-5 -25.82403,4.9441 -35.712,14.832 -9.79201,9.79208 -14.688,21.64807 -14.688,35.568 0,13.92004 4.89599,25.82403 14.688,35.712 9.88797,9.79201 21.79196,14.688 35.712,14.688 13.91993,0 25.77592,-4.89599 35.568,-14.688 9.8879,-9.88797 14.8319,-21.79196 14.832,-35.712 -10e-5,-3.74394 -0.3841,-7.39194 -1.152,-10.944 l -17.136,0 0.144,21.744"
           style="font-size:144px;text-align:center;text-anchor:middle;fill:#c4ff00"
           id="path3011" />
        <path
           d="m 214.70021,634.35186 c -1e-4,15.74404 -6.0481,28.65602 -18.144,38.736 l 0,-28.08 -21.6,0 0,38.592 c -3.45606,0.768 -7.00806,1.152 -10.656,1.152 -13.92004,0 -25.82403,-4.89599 -35.712,-14.688 -9.79201,-9.88797 -14.688,-21.79196 -14.688,-35.712 0,-13.91993 4.89599,-25.77592 14.688,-35.568 9.88797,-9.8879 21.79196,-14.8319 35.712,-14.832 13.91993,10e-5 25.77592,4.9441 35.568,14.832 9.8879,9.79208 14.8319,21.64807 14.832,35.568 m -39.744,-32.544 0,21.6 21.6,0 0,-21.6 -21.6,0"
           style="font-size:144px;text-align:center;text-anchor:middle;fill:#c4ff00"
           id="path3013" />
        <path
           d="m 214.58771,634.35186 c 0,-13.82393 4.94399,-25.67992 14.832,-35.568 9.88797,-9.8879 21.74396,-14.8319 35.568,-14.832 13.82393,10e-5 25.67992,4.9441 35.568,14.832 9.8879,9.88808 14.8319,21.74407 14.832,35.568 -1e-4,11.90404 -3.7921,22.65603 -11.376,32.256 -7.48808,9.60001 -16.89608,15.648 -28.224,18.144 l 0,-39.6 -21.6,0 0,39.024 c -11.42403,-2.592 -20.88002,-8.59199 -28.368,-18 -7.48801,-9.50397 -11.232,-20.11196 -11.232,-31.824 m 39.456,-32.544 0,21.6 21.6,0 0,-21.6 -21.6,0"
           style="font-size:144px;text-align:center;text-anchor:middle;fill:#c4ff00"
           id="path3015" />
        <path
           d="m 315.27521,634.35186 c 0,-13.91993 4.89599,-25.77592 14.688,-35.568 9.88797,-9.8879 21.79196,-14.8319 35.712,-14.832 13.91993,10e-5 25.77592,4.9441 35.568,14.832 9.8879,9.79208 14.8319,21.64807 14.832,35.568 -1e-4,13.92004 -4.9441,25.82403 -14.832,35.712 -9.79208,9.79201 -21.64807,14.688 -35.568,14.688 -13.92004,0 -25.82403,-4.89599 -35.712,-14.688 -9.79201,-9.88797 -14.688,-21.79196 -14.688,-35.712 m 61.056,-10.944 0,21.6 21.6,0 0,-21.6 -21.6,0"
           style="font-size:144px;text-align:center;text-anchor:middle;fill:#c4ff00"
           id="path3017" />
        <path
           d="m 466.36271,684.75186 c -15.45604,0 -28.32002,-6.09599 -38.592,-18.288 l 6.048,0.144 0,-64.8 -5.904,0 c 10.07998,-11.9039 22.89596,-17.8559 38.448,-17.856 15.55193,10e-5 28.36792,5.9521 38.448,17.856 l -5.904,0 0,64.8 6.048,-0.144 c -10.27208,12.19201 -23.13607,18.288 -38.592,18.288"
           style="font-size:144px;text-align:center;text-anchor:middle;fill:#c4ff00"
           id="path3019" />
        <path
           d="m 516.65021,634.35186 c 0,-13.91993 4.89599,-25.77592 14.688,-35.568 9.88797,-9.8879 21.79196,-14.8319 35.712,-14.832 13.91993,10e-5 25.77592,4.9441 35.568,14.832 9.8879,9.79208 14.8319,21.64807 14.832,35.568 -10e-5,13.92004 -4.9441,25.82403 -14.832,35.712 -9.79208,9.79201 -21.64807,14.688 -35.568,14.688 -13.92004,0 -25.82403,-4.89599 -35.712,-14.688 -9.79201,-9.88797 -14.688,-21.79196 -14.688,-35.712 m 39.456,-10.944 0,21.6 21.6,0 0,-21.6 -21.6,0"
           style="font-size:144px;text-align:center;text-anchor:middle;fill:#c4ff00"
           id="path3021" />
      </g>
      <g
         style="font-size:40px;font-style:normal;font-variant:normal;font-weight:normal;font-stretch:normal;line-height:125%;letter-spacing:0px;word-spacing:0px;fill:#c4c700;fill-opacity:1;stroke:none;font-family:Catharsis Circular;-inkscape-font-specification:Catharsis Circular"
         id="text2985-1">
        <path
           d="m 216.28126,294.61709 c 9.40798,7.96801 20.25596,11.952 32.544,11.952 12.19194,0 22.99193,-3.98399 32.4,-11.952 l 0,-49.104 16.848,0 c -2.49609,-11.51993 -8.40009,-21.02392 -17.712,-28.512 -9.21607,-7.4879 -19.72806,-11.2319 -31.536,-11.232 -11.80804,1e-4 -22.36803,3.7441 -31.68,11.232 -9.21601,7.48808 -15.072,16.99207 -17.568,28.512 l 16.704,0 0,49.104 m 0,-49.104 0,0"
           style="font-size:144px;text-align:center;text-anchor:middle;fill:#c4c700"
           id="path3024" />
        <path
           d="m 299.11276,256.16909 c 0,-11.61594 3.696,-22.07993 11.088,-31.392 7.48798,-9.31191 16.89597,-15.2639 28.224,-17.856 l 0.144,38.304 21.6,0 0,-38.304 c 11.51993,2.4961 21.02392,8.40009 28.512,17.712 7.48791,9.21607 11.2319,19.72806 11.232,31.536 -10e-5,11.80804 -3.74409,22.36803 -11.232,31.68 -7.48808,9.21601 -16.99207,15.07201 -28.512,17.568 l 0,-38.304 -21.6,0 -0.144,38.304 c -11.32803,-2.59199 -20.73602,-8.54399 -28.224,-17.856 -7.392,-9.31197 -11.088,-19.77596 -11.088,-31.392"
           style="font-size:144px;text-align:center;text-anchor:middle;fill:#c4c700"
           id="path3026" />
        <path
           d="m 450.20026,306.56909 c -13.92003,0 -25.82402,-4.89599 -35.712,-14.688 -9.792,-9.88797 -14.688,-21.79196 -14.688,-35.712 0,-13.91993 4.896,-25.77592 14.688,-35.568 9.88798,-9.8879 21.79197,-14.8319 35.712,-14.832 15.55194,1e-4 28.36792,5.9521 38.448,17.856 l -27.792,0 0,21.6 38.592,0 c 0.7679,3.55206 1.1519,7.20006 1.152,10.944 -10e-5,3.64805 -0.3841,7.20004 -1.152,10.656 l -38.592,0 0,21.6 28.08,0 c -10.08008,12.09601 -22.99206,18.144 -38.736,18.144"
           style="font-size:144px;text-align:center;text-anchor:middle;fill:#c4c700"
           id="path3028" />
        <path
           d="m 58.106262,446.82509 38.592,0 c 0.7679,-3.45596 1.1519,-7.00795 1.152,-10.656 -1e-4,-3.74394 -0.3841,-7.39194 -1.152,-10.944 l -38.592,0 0,-21.6 27.792,0 c -10.080078,-11.9039 -22.896066,-17.8559 -38.448,-17.856 -13.824036,10e-5 -25.680024,4.9441 -35.568,14.832 -9.8880045,9.88808 -14.8319995,21.74407 -14.8319995,35.568 0,13.82404 4.943995,25.68003 14.8319995,35.568 9.887976,9.88801 21.743964,14.832 35.568,14.832 3.647946,0 7.199943,-0.384 10.656,-1.152 l 0,-38.592"
           style="font-size:144px;text-align:center;text-anchor:middle;fill:#c4c700"
           id="path3030" />
        <path
           d="m 137.19376,425.22509 21.6,0 0,-38.304 c 11.51993,2.4961 21.02392,8.35209 28.512,17.568 7.48791,9.21607 11.2319,19.77606 11.232,31.68 -1e-4,13.92004 -4.94409,25.82403 -14.832,35.712 -9.79207,9.79201 -21.64806,14.688 -35.568,14.688 -13.92003,0 -25.82402,-4.89599 -35.712,-14.688 -9.792,-9.88797 -14.687998,-21.79196 -14.687998,-35.712 0,-11.80794 3.695998,-22.31993 11.087998,-31.536 7.39198,-9.21591 16.79997,-15.1199 28.224,-17.712 l 0.144,38.304"
           style="font-size:144px;text-align:center;text-anchor:middle;fill:#c4c700"
           id="path3032" />
        <path
           d="m 259.76926,425.22509 0,21.6 38.304,0 c -2.49609,11.52003 -8.35209,21.02402 -17.568,28.512 -9.21607,7.48801 -19.77606,11.232 -31.68,11.232 -13.92003,0 -25.82402,-4.89599 -35.712,-14.688 -9.792,-9.88797 -14.688,-21.79196 -14.688,-35.712 0,-13.91993 4.896,-25.77592 14.688,-35.568 9.88798,-9.8879 21.79197,-14.8319 35.712,-14.832 11.80794,10e-5 22.31993,3.6961 31.536,11.088 9.21591,7.39208 15.11991,16.80007 17.712,28.224 l -38.304,0.144"
           style="font-size:144px;text-align:center;text-anchor:middle;fill:#c4c700"
           id="path3034" />
        <path
           d="m 360.16876,386.92109 c 9.59993,2.0161 17.90392,6.52809 24.912,13.536 7.00791,6.91208 11.5679,15.16807 13.68,24.768 l -17.136,-0.144 0,21.744 17.136,0 c -2.0161,9.60003 -6.57609,17.95202 -13.68,25.056 -7.00808,7.00801 -15.31207,11.52 -24.912,13.536 l 0,-98.496 m 0,81.504 -21.744,0 0.144,16.992 c -11.52003,-2.59199 -20.97602,-8.49599 -28.368,-17.712 -7.392,-9.31197 -11.088,-19.82396 -11.088,-31.536 0,-11.71194 3.696,-22.17593 11.088,-31.392 7.39198,-9.31191 16.84797,-15.2639 28.368,-17.856 l -0.144,16.704 21.744,0 0,64.8"
           style="font-size:144px;text-align:center;text-anchor:middle;fill:#c4c700"
           id="path3036" />
        <path
           d="m 450.20026,486.56909 c -15.45603,0 -28.32002,-6.09599 -38.592,-18.288 l 6.048,0.144 0,-64.8 -5.904,0 c 10.07998,-11.9039 22.89597,-17.8559 38.448,-17.856 15.55194,10e-5 28.36792,5.9521 38.448,17.856 l -5.904,0 0,64.8 6.048,-0.144 c -10.27208,12.19201 -23.13606,18.288 -38.592,18.288"
           style="font-size:144px;text-align:center;text-anchor:middle;fill:#c4c700"
           id="path3038" />
        <path
           d="m 518.34376,446.82509 21.6,0 0,38.592 c 3.55196,0.768 7.19996,1.152 10.944,1.152 13.91994,0 25.77593,-4.89599 35.568,-14.688 9.88791,-9.88797 14.8319,-21.79196 14.832,-35.712 -1e-4,-15.74393 -6.04809,-28.65592 -18.144,-38.736 l -0.144,27.648 -21.456,0.144 0,-38.304 c -3.45606,-0.7679 -7.00805,-1.1519 -10.656,-1.152 -13.92003,10e-5 -25.82402,4.9441 -35.712,14.832 -9.792,9.79208 -14.688,21.64807 -14.688,35.568 0,15.55204 5.952,28.36802 17.856,38.448 l 0,-27.792"
           style="font-size:144px;text-align:center;text-anchor:middle;fill:#c4c700"
           id="path3040" />
        <path
           d="m 683.83126,446.96909 -21.6,-0.144 0,-43.2 27.792,0 c -10.08008,-11.9039 -22.89606,-17.8559 -38.448,-17.856 -13.92003,10e-5 -25.82402,4.9441 -35.712,14.832 -9.792,9.79208 -14.688,21.64807 -14.688,35.568 0,13.92004 4.896,25.82403 14.688,35.712 9.88798,9.79201 21.79197,14.688 35.712,14.688 13.91994,0 25.77593,-4.89599 35.568,-14.688 9.88791,-9.88797 14.8319,-21.79196 14.832,-35.712 -1e-4,-3.74394 -0.3841,-7.39194 -1.152,-10.944 l -17.136,0 0.144,21.744"
           style="font-size:144px;text-align:center;text-anchor:middle;fill:#c4c700"
           id="path3042" />
        <path
           d="m 198.53776,616.16909 c -1e-4,15.74404 -6.04809,28.65602 -18.144,38.736 l 0,-28.08 -21.6,0 0,38.592 c -3.45606,0.768 -7.00805,1.152 -10.656,1.152 -13.92003,0 -25.82402,-4.89599 -35.712,-14.688 -9.792,-9.88797 -14.687998,-21.79196 -14.687998,-35.712 0,-13.91993 4.895998,-25.77592 14.687998,-35.568 9.88798,-9.8879 21.79197,-14.8319 35.712,-14.832 13.91994,10e-5 25.77593,4.9441 35.568,14.832 9.88791,9.79208 14.8319,21.64807 14.832,35.568 m -39.744,-32.544 0,21.6 21.6,0 0,-21.6 -21.6,0"
           style="font-size:144px;text-align:center;text-anchor:middle;fill:#c4c700"
           id="path3044" />
        <path
           d="m 198.42526,616.16909 c 0,-13.82393 4.944,-25.67992 14.832,-35.568 9.88798,-9.8879 21.74397,-14.8319 35.568,-14.832 13.82394,10e-5 25.67993,4.9441 35.568,14.832 9.88791,9.88808 14.8319,21.74407 14.832,35.568 -10e-5,11.90404 -3.79209,22.65603 -11.376,32.256 -7.48808,9.60001 -16.89607,15.648 -28.224,18.144 l 0,-39.6 -21.6,0 0,39.024 c -11.42403,-2.592 -20.88002,-8.59199 -28.368,-18 -7.488,-9.50397 -11.232,-20.11196 -11.232,-31.824 m 39.456,-32.544 0,21.6 21.6,0 0,-21.6 -21.6,0"
           style="font-size:144px;text-align:center;text-anchor:middle;fill:#c4c700"
           id="path3046" />
        <path
           d="m 299.11276,616.16909 c 0,-13.91993 4.896,-25.77592 14.688,-35.568 9.88798,-9.8879 21.79197,-14.8319 35.712,-14.832 13.91994,10e-5 25.77593,4.9441 35.568,14.832 9.88791,9.79208 14.8319,21.64807 14.832,35.568 -10e-5,13.92004 -4.94409,25.82403 -14.832,35.712 -9.79207,9.79201 -21.64806,14.688 -35.568,14.688 -13.92003,0 -25.82402,-4.89599 -35.712,-14.688 -9.792,-9.88797 -14.688,-21.79196 -14.688,-35.712 m 61.056,-10.944 0,21.6 21.6,0 0,-21.6 -21.6,0"
           style="font-size:144px;text-align:center;text-anchor:middle;fill:#c4c700"
           id="path3048" />
        <path
           d="m 450.20026,666.56909 c -15.45603,0 -28.32002,-6.09599 -38.592,-18.288 l 6.048,0.144 0,-64.8 -5.904,0 c 10.07998,-11.9039 22.89597,-17.8559 38.448,-17.856 15.55194,10e-5 28.36792,5.9521 38.448,17.856 l -5.904,0 0,64.8 6.048,-0.144 c -10.27208,12.19201 -23.13606,18.288 -38.592,18.288"
           style="font-size:144px;text-align:center;text-anchor:middle;fill:#c4c700"
           id="path3050" />
        <path
           d="m 500.48776,616.16909 c 0,-13.91993 4.896,-25.77592 14.688,-35.568 9.88798,-9.8879 21.79197,-14.8319 35.712,-14.832 13.91994,10e-5 25.77593,4.9441 35.568,14.832 9.88791,9.79208 14.8319,21.64807 14.832,35.568 -1e-4,13.92004 -4.94409,25.82403 -14.832,35.712 -9.79207,9.79201 -21.64806,14.688 -35.568,14.688 -13.92003,0 -25.82402,-4.89599 -35.712,-14.688 -9.792,-9.88797 -14.688,-21.79196 -14.688,-35.712 m 39.456,-10.944 0,21.6 21.6,0 0,-21.6 -21.6,0"
           style="font-size:144px;text-align:center;text-anchor:middle;fill:#c4c700"
           id="path3052" />
      </g>
      <path
         style="fill:none;stroke:#86ff0f;stroke-width:62.79999924;stroke-linejoin:round;stroke-miterlimit:4;stroke-opacity:1"
         d="m -161.6244,135.14368 1040.45715,0 0,640.4367 -1040.45715,0 z"
         id="rect3820" />
    </g>
  </g>
</svg>
